<svg width="55" height="58" viewBox="0 0 55 58" fill="none" xmlns="http://www.w3.org/2000/svg">
<path d="M54 29C54 42.8071 42.8071 54 29 54C15.1929 54 4 42.8071 4 29C4 15.1929 15.1929 4 29 4C42.8071 4 54 15.1929 54 29Z" fill="#B1BBF0"/>
<path d="M50.5688 41.3838C50.4719 41.5527 50.373 41.7203 50.2723 41.8866C48.1141 45.4492 45.0938 48.4156 41.486 50.5098C37.7098 52.7019 33.4231 53.8611 29.0569 53.8711C24.6906 53.8811 20.3986 52.7414 16.6124 50.5667C12.8263 48.392 9.67933 45.2589 7.48798 41.4823C5.29664 37.7057 4.13812 33.4188 4.1289 29.0526C4.11968 24.6863 5.26008 20.3945 7.43546 16.6087C9.61083 12.8229 12.7445 9.67654 16.5215 7.48586C20.2008 5.3518 24.7508 4.19488 29 4.12885M43.433 36.9897L29 29V12.7629" stroke="#3D3A75" stroke-width="7" stroke-linecap="round" stroke-linejoin="round"/>
</svg>
